<?xml version="1.0" encoding="utf-8"?>
<svg xmlns="http://www.w3.org/2000/svg" id="Layer_1" viewBox="0 0 413.37 134.38">
<defs>
<style>.cls-1{fill:#289dc3;}.cls-2{fill:#abc450;}</style>
</defs>
<title>goBlender</title>
<path class="cls-1" d="M78.57,100.87l-.36,19.45-1.36.26h0c-1.38.24-2.8.43-4.22.56-.81.08-1.61.13-2.43.17l-.45,0-1.44,0s0,0,0,0a.74.74,0,0,0-.21,0H66.81l-1.15,0-.44,0-.39,0-.9-.07c-.34,0-.66,0-1-.07l-.65-.06-.4,0h-.08c-.33,0-.67-.07-1-.12l-.49-.08q-.76-.1-1.53-.24l-.9-.16-.44-.08-.19,0a.76.76,0,0,0-.16,0,.8.8,0,0,1-.15,0l-.33-.07-.28-.07-.92-.22-.09,0h0c-.45-.1-.93-.21-1.37-.33l-1.1-.32-1.26-.39-1.25-.43-.5-.19c-.25-.08-.5-.17-.74-.27l-1.23-.49c-.28-.12-.56-.23-.83-.36a7.91,7.91,0,0,1-.84-.37c-.17-.07-.33-.14-.5-.23-.53-.23-1.06-.49-1.57-.76l-.41-.2-.39-.23s0,0,0,0a.48.48,0,0,1-.16-.08l-.9-.5-.12-.06c-.17-.08-.33-.18-.5-.27l-.53-.32a.51.51,0,0,1-.16-.09c-.21-.12-.41-.24-.61-.38s-.49-.29-.72-.45a.24.24,0,0,1-.12-.07l-1-.64-.31-.21A1.21,1.21,0,0,1,38,112h0a1.89,1.89,0,0,1-.27-.2c-.17-.12-.35-.23-.51-.35l-.09-.07-.58-.43c-.49-.36-1-.73-1.43-1.1s-1-.82-1.5-1.24l-.24-.21-1-.91-.66-.62-.4-.38-.2-.2,0,0c-.39-.38-.78-.77-1.15-1.16l-.53-.57-.62-.68c-.13-.14-.26-.3-.39-.45l-.81-.94c-.05-.07-.11-.13-.16-.19s-.16-.21-.24-.3-.38-.46-.56-.7-.14-.19-.22-.28l-.54-.72c-.24-.32-.48-.65-.71-1-.13-.17-.26-.36-.39-.55l-.17-.26c-.15-.21-.3-.43-.44-.66a7.94,7.94,0,0,1-.5-.78.91.91,0,0,1-.15-.23c-.24-.35-.47-.73-.69-1.12l-.2-.35c-.05-.09-.12-.19-.17-.27l0,0-.09-.17a9.66,9.66,0,0,1-.52-.94l-.08-.14a.27.27,0,0,1-.06-.12c-.21-.36-.39-.74-.58-1.11a3.17,3.17,0,0,1-.21-.41c-.18-.36-.35-.73-.52-1.08a1.08,1.08,0,0,1-.08-.19h0A53,53,0,0,1,15.92,76L39.71,88a33.83,33.83,0,0,0,38.86,12.9Z"/>
<path class="cls-1" d="M107.39,34.76c.26.31.55.64.81,1l.1.12c.15.19.3.36.44.55a5.89,5.89,0,0,1,.44.55c.29.37.58.76.85,1.14a1.71,1.71,0,0,1,.2.27l.2.27a2.29,2.29,0,0,1,.28.41,1.16,1.16,0,0,1,.16.21l.59.87a1.63,1.63,0,0,1,.11.17c.18.26.35.52.51.8s.21.32.31.48l.17.28c.11.18.22.36.32.54.23.36.43.72.63,1.09.08.14.17.28.24.43l.36.68.46.89a1.51,1.51,0,0,1,.11.22c.12.23.24.46.35.71s.12.26.18.39c.19.38.37.77.54,1.18.1.22.2.45.29.67a3.58,3.58,0,0,1,.2.49,4.08,4.08,0,0,1,.17.42c.09.2.16.41.24.6l0,.15c.31.77.59,1.56.84,2.36.14.41.26.81.38,1.21a8.89,8.89,0,0,1,.26.88,1.38,1.38,0,0,1,.08.27s0,0,0,0c.07.21.12.42.17.63a5.12,5.12,0,0,1,.15.56v0a1.18,1.18,0,0,1,.08.31,4.66,4.66,0,0,1,.15.62,1,1,0,0,1,.06.29c.08.31.14.61.2.9a3.82,3.82,0,0,1,.09.44c.08.36.14.71.2,1.08a0,0,0,0,1,0,0c0,.18.07.38.11.56l0,.26,0,.15a1.24,1.24,0,0,0,0,.18s0,.06,0,.09c.06.38.12.76.16,1.14a.68.68,0,0,1,0,.15c0,.4.1.8.13,1.21s.07.66.1,1a1.84,1.84,0,0,0,0,.33c0,.25,0,.5,0,.75a8.06,8.06,0,0,1,0,.85c0,.26,0,.51,0,.76s0,.34,0,.52a2.25,2.25,0,0,1,0,.26c0,.27,0,.55,0,.82s0,.41,0,.62a1.55,1.55,0,0,1,0,.21,1,1,0,0,1,0,.17c0,.28,0,.57,0,.85l0,.74c0,.09,0,.18,0,.27,0,.34,0,.68-.08,1s0,.66-.08,1,0,.43-.06.65,0,.27,0,.41a.2.2,0,0,1,0,.07l-.12,1c0,.16,0,.33-.08.49-.08.51-.16,1-.25,1.53q-.06.47-.15.9l-.09.44c0,.06,0,.13,0,.19s0,.1,0,.15,0,.11,0,.17l-.06.32a1.36,1.36,0,0,1,0,.17c-.11.47-.22,1-.34,1.42s-.19.76-.29,1.13c-.22.78-.45,1.54-.7,2.32l-.42,1.24c-.07.17-.12.34-.19.51s-.18.49-.27.73c-.17.41-.33.82-.49,1.24l-.36.82c-.12.29-.25.57-.37.85s-.19.44-.3.65l-.14.28c-.1.22-.21.43-.32.65s-.18.38-.28.57c-.19.38-.39.76-.6,1.13l-.17.33a.64.64,0,0,0-.08.14,1,1,0,0,1-.13.23,3.41,3.41,0,0,1-.21.38c-.12.22-.25.43-.38.65s-.32.56-.5.84l-.49.78a.35.35,0,0,0,0,.08c-.16.25-.32.49-.49.73l-.14.22-.13.19c0,.09-.12.17-.17.25-.24.35-.48.69-.73,1a1,1,0,0,1-.09.13L110,100c-.25.33-.5.67-.76,1-.45.58-.91,1.16-1.38,1.73a55.74,55.74,0,0,1-4.58,4.77,54.36,54.36,0,0,1-4.93,4l0,0-1.19.83-.56.37s0,0,0,0l.51-27.32c.24-.42.46-.85.68-1.28a33.82,33.82,0,0,0-7.39-40.22l17-9.16Z"/>
<path class="cls-1" d="M91.42,22.29a3.35,3.35,0,0,1,.37.2L68.31,35.13a33.8,33.8,0,0,0-34.22,29.6l-17-8.59c-.1.39-.21.77-.3,1.16.09-.39.19-.78.29-1.17a.29.29,0,0,1,0-.1,2.33,2.33,0,0,1,.07-.25c.06-.26.13-.53.2-.78l.27-1,.08-.26c0-.09.05-.18.08-.28h0c.11-.35.23-.72.35-1.07l.33-1c0-.09.06-.18.1-.27l.1-.27c.14-.39.29-.77.44-1.15s.33-.82.5-1.23l.15-.35c.18-.43.38-.86.58-1.3s.52-1.09.79-1.62l.41-.78c.12-.24.24-.46.38-.69l.2-.37c.18-.34.38-.69.58-1,.05-.1.11-.19.16-.27a5.5,5.5,0,0,1,.36-.57c.17-.3.35-.59.53-.86.32-.5.65-1,1-1.46a.1.1,0,0,1,0,0c.17-.25.34-.5.52-.74s.35-.48.53-.71c.36-.49.73-1,1.1-1.44.85-1.06,1.74-2.08,2.66-3.07.32-.33.63-.66.95-1s.79-.79,1.18-1.17l.11-.09L33,29.91l.18-.15c.08-.08.16-.14.24-.21.37-.32.73-.64,1.1-.94,0,0,0,0,0,0h0q1.34-1.1,2.73-2.1l.14-.1c.45-.33.9-.64,1.36-.93a.71.71,0,0,1,.14-.1l.12-.08.17-.11a5.43,5.43,0,0,1,.51-.32.91.91,0,0,1,.16-.11l.32-.2c.29-.19.6-.37.9-.54a.76.76,0,0,1,.19-.12c.47-.28.95-.55,1.44-.82A1.82,1.82,0,0,1,43,22.9c.41-.23.82-.44,1.24-.65a1.13,1.13,0,0,1,.22-.11l.45-.22.65-.31a2.29,2.29,0,0,1,.35-.16c.27-.13.54-.26.83-.38l.55-.23a.31.31,0,0,1,.12-.05,3.48,3.48,0,0,1,.48-.21,4.08,4.08,0,0,1,.42-.17l.61-.24c.49-.2,1-.39,1.52-.57.32-.11.65-.23,1-.32A3.8,3.8,0,0,1,52,19.1l.57-.17a2.16,2.16,0,0,1,.39-.12l1.26-.36c.38-.11.75-.2,1.12-.28s.51-.13.77-.18a9.05,9.05,0,0,1,1-.24l.3-.06.23-.05c.37-.07.74-.14,1.1-.19l.66-.13.38-.05h.13a.08.08,0,0,1,.07,0c.88-.13,1.78-.25,2.69-.33l.51-.05.33,0,.35,0,.93-.07H65l1.19,0c.18,0,.36,0,.54,0h2l.89,0a4.38,4.38,0,0,1,.51,0l.67,0h.17l.54,0,.91.08.62.05.21,0,.41.05c.35,0,.71.08,1.07.13l1,.14c.33.06.66.11,1,.18s.62.1.93.15l.78.17c1.06.22,2.12.47,3.16.75l1.1.32q.63.18,1.26.39l1.24.43c.42.15.84.29,1.25.46l1.23.48.3.14.25.11.1,0,0,0c.52.22,1,.46,1.57.7l1,.5Z"/>
<circle class="cls-2" cx="67.4" cy="69.82" r="19.15" transform="translate(-18.15 24.01) rotate(-17.84)"/>
<path class="cls-1" d="M205.12,46.29h16.56a20,20,0,0,1,4.74.57,12.15,12.15,0,0,1,4.17,1.86A9.6,9.6,0,0,1,234.7,57a8.71,8.71,0,0,1-2,5.94,11.34,11.34,0,0,1-5.34,3.36v.12A11,11,0,0,1,231,67.5a9.78,9.78,0,0,1,2.91,2.22,10.26,10.26,0,0,1,1.89,3.12,10.4,10.4,0,0,1,.69,3.81,11.13,11.13,0,0,1-1.38,5.79,11,11,0,0,1-3.63,3.72,15.53,15.53,0,0,1-5.16,2,29.19,29.19,0,0,1-5.91.6h-15.3Zm7.56,17.28h6.9a9.15,9.15,0,0,0,5.67-1.47,5.1,5.1,0,0,0-.06-8q-2-1.35-6.27-1.35h-6.24Zm0,18.72h7a28.59,28.59,0,0,0,3.09-.18,9.31,9.31,0,0,0,3-.84A6,6,0,0,0,228,79.38a5.53,5.53,0,0,0,.9-3.33q0-3.36-2.19-4.68t-6.81-1.32h-7.26Z"/>
<path class="cls-1" d="M240.63,43.41h7.2V88.77h-7.2Z"/>
<path class="cls-1" d="M259,76.21a7.31,7.31,0,0,0,2.52,5,7.89,7.89,0,0,0,5.22,1.8,8.59,8.59,0,0,0,4.53-1.11,12.56,12.56,0,0,0,3.21-2.79l5.16,3.9A14.62,14.62,0,0,1,274,87.49a16.62,16.62,0,0,1-6.54,1.32,17.29,17.29,0,0,1-6.12-1.08,14.68,14.68,0,0,1-5-3.06,14.52,14.52,0,0,1-3.33-4.77,16.29,16.29,0,0,1,0-12.42,14.52,14.52,0,0,1,3.33-4.77,14.68,14.68,0,0,1,5-3.06,17.29,17.29,0,0,1,6.12-1.08,14,14,0,0,1,5.49,1,11.77,11.77,0,0,1,4.26,3A14,14,0,0,1,280,67.54a20.74,20.74,0,0,1,1,6.69v2Zm14.76-5.4a6.78,6.78,0,0,0-2-5A7.43,7.43,0,0,0,266.47,64a7,7,0,0,0-5.13,1.86,8.3,8.3,0,0,0-2.31,5Z"/>
<path class="cls-1" d="M285,59.87h6.84v4.62h.12a10.1,10.1,0,0,1,3.12-3.75,9.23,9.23,0,0,1,5.7-1.59,11.28,11.28,0,0,1,4.89,1,9.24,9.24,0,0,1,3.27,2.52,9.54,9.54,0,0,1,1.8,3.6,16.58,16.58,0,0,1,.54,4.26V88.67h-7.2V74.09q0-1.2-.12-2.67a9.59,9.59,0,0,0-.63-2.76,5.17,5.17,0,0,0-1.59-2.16,4.56,4.56,0,0,0-2.94-.87,6.88,6.88,0,0,0-3,.6,5.82,5.82,0,0,0-2,1.62,6.44,6.44,0,0,0-1.17,2.34,10.44,10.44,0,0,0-.36,2.76V88.67H285Z"/>
<path class="cls-1" d="M339.28,84.06h-.12A9.26,9.26,0,0,1,335,87.9a13.61,13.61,0,0,1-5.7,1.2,14.46,14.46,0,0,1-6-1.17,13.38,13.38,0,0,1-4.47-3.21,13.72,13.72,0,0,1-2.82-4.8A18,18,0,0,1,315,74a17,17,0,0,1,1-5.94,14.77,14.77,0,0,1,2.85-4.8A13.14,13.14,0,0,1,323.32,60,13.5,13.5,0,0,1,329,58.86a13.9,13.9,0,0,1,3.6.42,12.41,12.41,0,0,1,2.76,1.08,11,11,0,0,1,2,1.41,10.25,10.25,0,0,1,1.38,1.47h.18V43h7.2V88.38h-6.84ZM322.24,74a9.37,9.37,0,0,0,.57,3.24A8.13,8.13,0,0,0,324.49,80a8.51,8.51,0,0,0,12.42,0,8.13,8.13,0,0,0,1.68-2.76,9.49,9.49,0,0,0,0-6.48A8.13,8.13,0,0,0,336.91,68a8.51,8.51,0,0,0-12.42,0,8.13,8.13,0,0,0-1.68,2.76A9.37,9.37,0,0,0,322.24,74Z"/>
<path class="cls-1" d="M357.2,76.21a7.28,7.28,0,0,0,2.53,5,7.84,7.84,0,0,0,5.21,1.8,8.65,8.65,0,0,0,4.54-1.11,12.9,12.9,0,0,0,3.21-2.79l5.16,3.9a14.72,14.72,0,0,1-5.65,4.44,16.62,16.62,0,0,1-6.54,1.32,17.29,17.29,0,0,1-6.12-1.08,14.68,14.68,0,0,1-5-3.06,14.52,14.52,0,0,1-3.33-4.77,16.29,16.29,0,0,1,0-12.42,14.52,14.52,0,0,1,3.33-4.77,14.68,14.68,0,0,1,5-3.06,17.29,17.29,0,0,1,6.12-1.08,14,14,0,0,1,5.49,1,11.77,11.77,0,0,1,4.26,3,13.84,13.84,0,0,1,2.76,4.89,20.74,20.74,0,0,1,1,6.69v2ZM372,70.81a6.78,6.78,0,0,0-2-5A7.42,7.42,0,0,0,364.65,64a7,7,0,0,0-5.13,1.86,8.25,8.25,0,0,0-2.32,5Z"/>
<path class="cls-1" d="M383.05,59.87h7.2v4.56h.12a9,9,0,0,1,3.42-3.9,9.46,9.46,0,0,1,5.1-1.38,6.88,6.88,0,0,1,1.29.12q.63.12,1.29.3v7q-.9-.24-1.77-.39A10.05,10.05,0,0,0,398,66a7.73,7.73,0,0,0-4.05.93,7.38,7.38,0,0,0-2.34,2.13,7.08,7.08,0,0,0-1.08,2.4,9,9,0,0,0-.27,1.8V88.67h-7.2Z"/>
<g id="Layer_2">
<path class="cls-2" d="M170.42,73.54a15.23,15.23,0,0,1,1.23-6.21A14.52,14.52,0,0,1,175,62.56a14.68,14.68,0,0,1,5-3.06,17.88,17.88,0,0,1,12.24,0,14.68,14.68,0,0,1,5,3.06,14.52,14.52,0,0,1,3.33,4.77,16.29,16.29,0,0,1,0,12.42,14.52,14.52,0,0,1-3.33,4.77,14.68,14.68,0,0,1-5,3.06,17.88,17.88,0,0,1-12.24,0,14.68,14.68,0,0,1-5-3.06,14.52,14.52,0,0,1-3.33-4.77A15.23,15.23,0,0,1,170.42,73.54Zm7.2,0a9.37,9.37,0,0,0,.57,3.24,8.13,8.13,0,0,0,1.68,2.76,8.51,8.51,0,0,0,12.42,0A8.13,8.13,0,0,0,194,76.78a9.49,9.49,0,0,0,0-6.48,8.13,8.13,0,0,0-1.68-2.76,8.51,8.51,0,0,0-12.42,0,8.13,8.13,0,0,0-1.68,2.76A9.37,9.37,0,0,0,177.62,73.54Z"/>
<path class="cls-2" d="M162.81,61.52l-.67-.52q3.77-2.49,7.5-5l-8-5c-3.67,2.71-7.4,5.45-11.68,7-1.73.64-3.51,1.09-5.19,1.85A15.22,15.22,0,0,0,136.13,73l-4-1.59c-.66-.26-1.33-.51-2-.78a7.09,7.09,0,0,0-2-.74,39.4,39.4,0,0,0,.13,4.34c0,1.5.09,3,.14,4.49l5.83,2.44,2.15.89a13.64,13.64,0,0,1,2.2,1.09,3.85,3.85,0,0,1,.34.26,8.42,8.42,0,0,1,.88.74c.37.34.74.7,1.12,1a16.27,16.27,0,0,0,6,3.42l.21,0-.19.05a17.66,17.66,0,0,0,5.65.83h.19a16.88,16.88,0,0,0,3.75-.54,48.11,48.11,0,0,0,0,5.38v4a7.08,7.08,0,0,1-.4,3.54,8.67,8.67,0,0,1-3.33,3.28,8.48,8.48,0,0,1-3.06,1l-.37,0-.51,0a8.44,8.44,0,0,1-3.31-.46,8.35,8.35,0,0,1-2.9-1.74,8.18,8.18,0,0,1-2-2.68,9.54,9.54,0,0,1-.87-3.27c0-.25,0-.49,0-.73l-7.39.63c0,.24,0,.48.05.72a16.55,16.55,0,0,0,1.12,4.85c.1.24.21.48.32.71s.23.47.36.7l0,.08a.25.25,0,0,1,0,.07c0,.08.09.15.13.22.15.24.29.48.44.7a.21.21,0,0,1,0,.06l.27.4.14.19a2.33,2.33,0,0,0,.16.2c.21.29.45.56.67.83s.51.56.77.81c0,0,.06.07.11.1l.41.4.1.08.54.46a15.12,15.12,0,0,0,5.41,2.7,17,17,0,0,0,4.22.63h.63l.73,0,.83,0c.19,0,.38,0,.57-.06.41,0,.81-.11,1.21-.18,0,0,0,0,0,0a16.19,16.19,0,0,0,3.54-1c.28-.11.59-.24.86-.37a15,15,0,0,0,4.88-3.58,14.85,14.85,0,0,0,3-5,.61.61,0,0,0,0-.12,8.46,8.46,0,0,0,.34-1.19,12.31,12.31,0,0,0,.34-1.83l.11-2.39s.08-1.81.08-1.81l0-.59,0-.28v-.23L165.08,84a15.25,15.25,0,0,0,2.43-4.44c.11-.4.24-.79.35-1.19,0,0,0-.09,0-.13a2.41,2.41,0,0,0,.08-.25A16.24,16.24,0,0,0,162.81,61.52Zm-8.66,21-.15,0c-.29,0-.59.09-.91.12a8.66,8.66,0,0,1-3.72-.43,6,6,0,0,1-1-.47H148l.31,0a8,8,0,0,1-1.88-1.27,3.85,3.85,0,0,1-.35-.35,8,8,0,0,1-1.61-2.35,9.33,9.33,0,0,1-.87-3.28,9.16,9.16,0,0,1,0-1.48,9,9,0,0,1,.32-1.91,8.6,8.6,0,0,1,1.48-3A8.94,8.94,0,0,1,148,66a8.63,8.63,0,0,1,3.59-1.06,8.48,8.48,0,0,1,3.71.44,9,9,0,0,1,2.92,1.74,8.52,8.52,0,0,1,2,2.7,9.27,9.27,0,0,1,.87,3.29,9.43,9.43,0,0,1-.3,3.39,2.83,2.83,0,0,1-.14.41v0a2.53,2.53,0,0,1-.12.36,7.66,7.66,0,0,1-.93,1.77c-.09.14-.19.27-.29.4a8.7,8.7,0,0,1-2.59,2.22A8.12,8.12,0,0,1,154.15,82.55Zm10.28,12-.06,0s0,0,0,0Z"/>
</g>
</svg>
